 <svg version="1.0" xmlns="http://www.w3.org/2000/svg" width="700.000000pt" height="699.000000pt" viewBox="0 0 700.000000 699.000000" preserveAspectRatio="xMidYMid meet">
<metadata>
Created by potrace 1.12, written by Peter Selinger 2001-2015
</metadata>
<g transform="translate(0.000000,699.000000) scale(0.100000,-0.100000)" fill="#000000" stroke="none">
<path d="M2871 6933 c-16 -32 -45 -102 -65 -157 -21 -54 -47 -115 -60 -135
-40 -64 -202 -373 -252 -480 l-48 -104 43 -126 c24 -69 54 -150 67 -180 l24
-53 90 82 c104 95 107 98 86 106 -10 4 -41 -16 -86 -57 -41 -36 -74 -59 -79
-53 -5 5 -30 71 -56 147 l-48 137 52 113 c29 61 103 207 166 322 62 116 127
249 145 298 18 48 36 87 39 87 4 0 17 -13 29 -30 l23 -30 555 0 c343 0 562 4
574 10 10 5 23 23 28 40 6 16 15 30 20 30 5 0 14 -33 21 -72 44 -256 62 -333
101 -422 53 -120 147 -290 216 -388 30 -43 54 -84 54 -92 0 -21 -67 -207 -79
-219 -7 -7 -35 13 -82 57 -39 37 -77 65 -84 62 -7 -2 -79 62 -166 149 l-154
154 -112 3 c-62 2 -113 1 -113 -2 1 -3 24 -16 53 -29 79 -37 195 -158 240
-250 l35 -74 60 -1 c36 -1 69 -8 85 -18 28 -19 37 -15 37 18 0 47 24 35 116
-57 58 -57 97 -90 103 -84 4 6 32 77 61 158 l53 148 -26 27 c-49 52 -150 219
-227 377 l-79 161 -36 204 c-46 273 -49 280 -84 280 -27 0 -29 -3 -41 -65
l-12 -65 -558 0 -557 0 -7 50 c-13 99 -24 103 -65 23z"></path>
<path d="M3610 6450 c-42 -42 -11 -113 49 -113 59 0 88 59 51 106 -26 33 -71
36 -100 7z m84 -32 c8 -14 6 -22 -10 -39 -18 -17 -25 -19 -43 -10 -11 7 -21
20 -21 29 0 41 52 55 74 20z"></path>
<path d="M3409 6324 l-80 -77 -57 7 c-31 4 -73 9 -92 12 -42 7 -103 -29 -108
-64 -4 -30 6 -28 43 7 28 27 33 29 75 21 25 -4 70 -11 100 -14 l55 -7 77 76
c43 41 81 75 85 75 5 0 41 -33 81 -73 l73 -73 85 4 86 5 43 -43 c37 -37 45
-41 51 -26 8 20 -26 60 -68 82 -15 8 -56 14 -95 14 -78 0 -90 6 -173 85 -83
80 -86 80 -181 -11z"></path>
<path d="M3662 6163 c2 -10 11 -19 21 -21 16 -3 17 -1 5 17 -16 25 -31 27 -26
4z"></path>
<path d="M2916 6031 l-136 -133 0 -70 0 -70 28 8 c15 5 50 9 79 9 l52 0 36 73
c63 125 173 229 298 279 34 14 65 28 69 31 4 4 -60 7 -142 7 l-149 0 -135
-134z"></path>
<path d="M2393 6038 c-6 -7 -32 -55 -58 -106 l-47 -93 17 -33 c25 -45 17 -66
-39 -103 -27 -17 -65 -47 -85 -66 -36 -34 -70 -51 -128 -62 -17 -3 -37 -12
-42 -19 -9 -11 -2 -11 41 -1 84 20 110 33 157 81 24 25 57 48 72 51 19 3 37
18 50 40 22 36 21 48 -13 95 -10 15 -10 22 1 40 25 40 92 180 88 184 -2 3 -9
-1 -14 -8z"></path>
<path d="M3428 6021 c-97 -31 -144 -103 -135 -207 2 -35 10 -71 17 -79 12 -14
16 -13 39 9 54 51 109 70 211 74 52 2 99 8 103 12 10 9 -18 80 -32 80 -5 0 -7
8 -5 18 3 11 -10 31 -35 56 -33 32 -48 39 -88 42 -26 2 -60 -1 -75 -5z m117
-31 l26 -10 -22 -31 c-23 -33 -26 -34 -80 -43 -20 -4 -54 -20 -74 -36 -44 -35
-81 -35 -77 1 10 90 134 154 227 119z m40 -112 c37 -17 30 -28 -18 -28 -51 0
-153 -25 -184 -46 -37 -24 -30 10 8 37 60 42 146 59 194 37z"></path>
<path d="M4623 5902 c18 -26 45 -69 61 -95 26 -40 46 -59 46 -43 0 9 -84 141
-104 164 -34 38 -36 24 -3 -26z"></path>
<path d="M2707 5708 c-60 -80 -84 -162 -67 -224 12 -42 49 -85 83 -97 26 -10
20 8 -8 23 -87 47 -78 196 18 298 23 24 27 32 14 32 -9 0 -27 -15 -40 -32z"></path>
<path d="M3515 5715 c-23 -23 -33 -45 -19 -45 3 0 15 11 26 25 14 19 29 25 57
25 20 0 42 -5 49 -12 25 -25 7 -98 -23 -98 -8 0 -15 -4 -15 -10 0 -23 40 -8
55 20 19 37 19 70 -1 98 -22 32 -96 31 -129 -3z"></path>
<path d="M4702 5722 c-20 -35 2 -80 47 -99 20 -8 59 -37 87 -63 41 -39 61 -50
110 -61 32 -7 67 -16 78 -22 14 -7 17 -6 14 5 -5 13 -22 20 -96 38 -27 7 -63
29 -97 58 -29 26 -68 56 -87 67 -26 16 -34 28 -38 60 -5 39 -6 39 -18 17z"></path>
<path d="M4268 5698 c24 -26 61 -105 62 -130 0 -10 5 -18 10 -18 16 0 11 31
-11 80 -21 47 -56 90 -72 90 -6 0 -1 -10 11 -22z"></path>
<path d="M2514 5629 c-49 -38 -52 -42 -57 -97 -3 -31 -16 -84 -30 -117 -29
-71 -40 -125 -27 -125 5 0 12 12 16 28 3 15 17 57 30 93 14 37 29 90 33 119 7
45 15 58 52 90 60 52 46 58 -17 9z"></path>
<path d="M3482 5563 c3 -86 3 -88 28 -88 21 0 26 5 28 33 2 18 -1 32 -7 32 -6
0 -11 -7 -11 -15 0 -8 -4 -15 -10 -15 -6 0 -10 30 -10 70 0 42 -4 70 -10 70
-7 0 -10 -32 -8 -87z"></path>
<path d="M3754 5630 c-12 -4 -31 -21 -44 -37 -31 -39 -23 -107 16 -141 23 -20
34 -23 68 -17 23 3 55 7 72 7 22 1 30 6 27 15 -3 7 1 13 7 13 9 0 8 6 -3 18
-10 10 -17 33 -17 50 0 60 -74 114 -126 92z m90 -112 c16 -26 -26 -68 -52 -52
-19 12 -27 37 -18 60 8 20 56 14 70 -8z"></path>
<path d="M3168 5600 c-26 -27 -29 -36 -26 -80 2 -40 -1 -52 -17 -64 -18 -13
-18 -15 -3 -16 11 0 15 -5 12 -15 -7 -17 11 -21 21 -4 5 7 24 8 54 4 38 -5 51
-3 72 14 57 45 61 111 9 162 -39 39 -82 39 -122 -1z m112 -74 c20 -25 8 -61
-22 -64 -37 -4 -57 31 -32 59 20 23 37 24 54 5z"></path>
<path d="M4440 5563 c0 -11 46 -55 82 -77 21 -14 34 -40 62 -124 20 -59 36
-119 36 -133 0 -15 6 -31 13 -37 22 -19 4 81 -36 197 -24 70 -41 105 -52 107
-9 1 -36 19 -60 39 -25 20 -45 32 -45 28z"></path>
<path d="M2105 5514 c-33 -8 -71 -12 -85 -10 l-25 4 24 -19 24 -20 -28 -29
c-16 -16 -26 -32 -24 -35 3 -3 18 9 34 25 16 17 35 30 43 30 21 0 102 48 102
60 0 6 -1 9 -2 9 -2 -1 -30 -8 -63 -15z"></path>
<path d="M4326 5474 c-8 -32 -52 -74 -77 -74 -11 0 -19 -4 -19 -10 0 -14 12
-13 49 6 32 16 71 66 71 92 0 22 -18 12 -24 -14z"></path>
<path d="M4872 5449 c2 -5 39 -31 83 -57 78 -46 102 -76 71 -88 -8 -3 -54 13
-102 35 -48 23 -89 41 -92 41 -3 0 26 -33 65 -72 38 -40 72 -80 76 -88 5 -13
7 -13 16 0 15 21 14 30 -4 30 -15 0 -41 38 -32 47 3 3 21 -1 41 -8 28 -10 38
-10 50 0 23 19 20 33 -19 78 -19 23 -35 43 -35 46 0 3 10 8 23 12 16 6 6 9
-43 16 -36 4 -73 10 -83 13 -10 2 -17 0 -15 -5z"></path>
<path d="M2128 5414 c-38 -18 -68 -39 -68 -46 0 -7 -7 -26 -15 -42 -28 -53 -5
-41 77 42 44 45 79 82 77 81 -2 -1 -34 -16 -71 -35z"></path>
<path d="M2865 5433 c-11 -8 -35 -22 -53 -29 l-33 -15 6 -77 c20 -241 138
-448 304 -532 117 -58 193 -72 406 -74 208 -1 263 8 371 61 118 57 166 120
230 298 18 50 44 121 58 158 28 74 45 177 29 177 -6 0 -26 11 -45 24 l-36 24
-4 -54 c-3 -30 -7 -56 -10 -59 -3 -3 -63 -8 -134 -11 -107 -4 -126 -3 -110 8
73 51 75 70 5 39 -25 -11 -78 -26 -118 -32 -57 -10 -69 -14 -53 -20 27 -10 27
-8 0 -65 l-23 -46 -10 53 -10 54 -41 3 c-38 3 -41 1 -51 -30 -11 -32 -11 -32
-12 -6 -1 37 -20 44 -141 52 -95 6 -198 23 -258 41 -18 6 -21 4 -16 -10 6 -15
2 -16 -22 -12 -16 3 -56 8 -89 12 -109 11 -114 13 -117 50 -3 32 -4 33 -23 18z"></path>
<path d="M2171 5309 c-53 -50 -63 -76 -17 -46 26 17 82 85 75 91 -2 2 -28 -18
-58 -45z"></path>
<path d="M2320 5338 c-1 -29 -24 -56 -79 -93 -51 -35 -40 -45 18 -16 42 22 91
28 91 11 0 -15 26 -12 39 4 10 12 8 13 -8 9 -36 -9 -54 15 -46 64 4 28 2 43
-4 43 -6 0 -11 -10 -11 -22z"></path>
<path d="M4698 5255 c3 -28 0 -50 -8 -60 -19 -23 4 -18 25 5 19 21 19 20 64
-23 81 -78 86 -60 7 24 -42 44 -76 85 -76 90 0 5 -4 9 -9 9 -5 0 -6 -20 -3
-45z"></path>
<path d="M4800 5294 c0 -5 17 -30 38 -55 20 -25 44 -55 52 -67 13 -18 21 -20
49 -14 19 4 36 13 38 19 3 7 -3 9 -15 6 -19 -5 -53 19 -124 86 -21 19 -38 31
-38 25z"></path>
<path d="M295 5199 c-36 -101 -75 -260 -75 -303 0 -13 15 -46 32 -74 18 -27
38 -56 43 -66 16 -27 159 -58 231 -50 46 4 79 1 138 -15 42 -12 97 -21 121
-21 43 0 52 5 138 81 51 44 122 99 159 122 37 23 67 45 68 48 0 3 -46 11 -102
18 -356 42 -527 93 -653 197 -100 82 -94 78 -100 63z"></path>
<path d="M2170 5100 c0 -5 6 -10 14 -10 8 0 18 5 21 10 3 6 -3 10 -14 10 -12
0 -21 -4 -21 -10z"></path>
<path d="M6790 5060 c-19 -12 -23 -8 101 -73 l106 -55 0 38 c0 38 0 39 -73 69
-76 32 -109 37 -134 21z"></path>
<path d="M6670 5007 c-109 -53 -230 -121 -230 -129 0 -5 8 -11 18 -15 130 -45
319 -151 439 -244 43 -34 84 -66 91 -72 8 -6 12 -6 12 1 0 34 -289 227 -435
290 -38 17 -71 35 -73 40 -5 16 78 60 173 94 l84 29 122 -61 c67 -33 124 -58
128 -55 3 4 -3 13 -14 21 -39 29 -234 124 -252 123 -10 0 -38 -10 -63 -22z"></path>
<path d="M2850 4892 c0 -10 41 -24 49 -17 6 7 0 11 -26 19 -13 4 -23 3 -23 -2z"></path>
<path d="M4130 4880 c0 -5 7 -10 15 -10 8 0 15 5 15 10 0 6 -7 10 -15 10 -8 0
-15 -4 -15 -10z"></path>
<path d="M2779 4828 c-22 -48 -28 -53 -62 -56 -46 -4 -49 -22 -4 -22 37 0 50
12 85 76 24 45 26 54 14 54 -4 0 -19 -24 -33 -52z"></path>
<path d="M4080 4870 c0 -5 7 -10 15 -10 8 0 15 5 15 10 0 6 -7 10 -15 10 -8 0
-15 -4 -15 -10z"></path>
<path d="M4220 4858 c0 -7 14 -34 30 -60 29 -46 32 -48 75 -48 25 0 45 5 45
10 0 6 -18 10 -40 10 -38 0 -43 3 -72 50 -33 52 -38 58 -38 38z"></path>
<path d="M4933 4835 c-33 -33 -38 -35 -69 -25 -40 14 -103 -1 -128 -29 -10
-11 -24 -37 -31 -58 -12 -34 -17 -39 -54 -44 -74 -10 -121 -60 -121 -131 0
-31 -4 -38 -19 -38 -28 0 -79 -56 -87 -94 -4 -23 0 -46 11 -70 10 -20 16 -38
14 -39 -2 -1 -17 -10 -34 -19 -67 -38 -81 -125 -29 -179 24 -25 26 -31 15 -52
-7 -13 -12 -52 -11 -88 1 -35 -2 -83 -5 -105 -8 -47 12 -96 45 -114 16 -8 20
-21 20 -57 0 -40 5 -51 38 -82 34 -32 38 -41 35 -76 -5 -52 25 -101 74 -121
33 -14 47 -15 93 -3 10 3 14 -2 12 -13 -5 -31 26 -87 60 -108 36 -22 73 -25
113 -10 22 8 27 7 34 -14 5 -12 24 -35 41 -49 37 -31 97 -36 143 -12 21 10 34
12 47 5 31 -17 75 -11 112 14 29 19 44 23 81 19 42 -5 49 -2 78 26 29 29 31
36 26 79 -3 26 -1 63 5 82 8 28 7 44 -5 72 -26 61 -86 86 -159 65 -25 -7 -29
-4 -46 36 -27 60 -71 90 -144 95 l-58 4 0 36 c0 20 -9 55 -21 79 l-21 43 30
25 c17 14 38 45 47 70 26 65 14 110 -43 164 -42 41 -46 48 -43 87 1 23 -4 55
-13 72 -15 28 -14 30 15 58 49 47 62 80 56 146 l-5 58 29 0 c33 0 79 20 98 44
40 48 28 138 -24 172 -14 9 -35 34 -46 55 -36 71 -100 80 -156 24z"></path>
<path d="M1419 4794 c-139 -93 -257 -196 -330 -287 -40 -49 -51 -97 -25 -97
21 0 30 -18 17 -34 -6 -7 -10 -24 -9 -37 2 -18 -2 -25 -19 -27 -22 -3 -33 -22
-14 -22 5 0 16 -2 23 -5 9 -4 28 15 53 50 21 31 59 74 84 96 59 53 190 116
271 131 l65 13 6 40 c3 22 10 49 16 60 22 38 80 86 129 105 31 11 43 20 34 24
-33 12 -180 46 -198 46 -10 0 -57 -25 -103 -56z"></path>
<path d="M5167 4822 c-14 -22 3 -69 39 -106 31 -32 54 -45 54 -31 0 3 -16 20
-36 38 -26 23 -38 45 -43 73 -4 25 -9 34 -14 26z"></path>
<path d="M5491 4791 c-11 -7 -11 -15 -2 -44 7 -19 10 -40 9 -47 -2 -8 24 -19
71 -31 41 -11 99 -30 129 -44 30 -14 57 -23 60 -20 10 10 -31 57 -62 70 -19 8
-38 27 -49 49 -28 59 -112 95 -156 67z"></path>
<path d="M4005 4780 c3 -5 13 -10 21 -10 8 0 14 5 14 10 0 6 -9 10 -21 10 -11
0 -17 -4 -14 -10z"></path>
<path d="M2600 4770 c0 -5 14 -10 30 -10 17 0 30 5 30 10 0 6 -13 10 -30 10
-16 0 -30 -4 -30 -10z"></path>
<path d="M4390 4770 c0 -5 7 -10 15 -10 8 0 15 5 15 10 0 6 -7 10 -15 10 -8 0
-15 -4 -15 -10z"></path>
<path d="M6198 4736 c-10 -7 -18 -17 -18 -22 0 -5 44 -29 97 -54 246 -114 485
-302 680 -535 31 -36 42 -45 43 -31 0 43 -205 259 -355 372 -82 61 -230 161
-275 184 -15 8 -20 15 -12 18 15 5 152 -64 240 -121 105 -68 209 -157 306
-258 105 -112 131 -105 30 8 -158 176 -367 323 -587 413 -107 43 -123 46 -149
26z"></path>
<path d="M2535 4690 c-9 -27 -24 -54 -33 -59 -9 -5 -14 -13 -10 -16 15 -15 36
5 51 47 8 24 18 51 22 61 4 9 3 17 -3 17 -6 0 -18 -22 -27 -50z"></path>
<path d="M4460 4726 c0 -8 5 -18 10 -21 6 -3 10 1 10 9 0 8 -4 18 -10 21 -5 3
-10 -1 -10 -9z"></path>
<path d="M1943 4703 c9 -45 -3 -80 -40 -118 -19 -20 -34 -38 -32 -39 2 -2 17
-8 34 -13 28 -9 31 -14 46 -100 36 -192 111 -374 213 -516 l56 -78 -38 -15
c-196 -79 -347 -203 -471 -389 -29 -44 -54 -81 -55 -82 -1 -2 -16 1 -33 6 -40
12 -46 5 -28 -30 19 -36 19 -90 0 -115 -8 -10 -15 -22 -15 -25 -1 -20 335 -27
445 -9 246 39 444 197 487 388 10 46 9 64 -7 127 l-18 74 37 42 c112 123 116
286 13 484 -41 80 -189 227 -287 286 -68 41 -167 89 -274 133 l-39 16 6 -27z"></path>
<path d="M4228 4699 c7 -17 18 -25 41 -27 17 -2 31 1 31 7 0 6 -10 11 -22 11
-12 0 -30 8 -40 17 -18 16 -18 16 -10 -8z"></path>
<path d="M2785 4701 c-3 -6 -15 -11 -26 -11 -10 0 -19 -4 -19 -10 0 -16 36
-12 50 5 7 9 10 18 7 21 -3 3 -8 1 -12 -5z"></path>
<path d="M4484 4665 c4 -16 12 -34 18 -40 7 -7 8 -1 4 20 -4 17 -12 35 -18 40
-7 7 -8 1 -4 -20z"></path>
<path d="M6104 4668 c-64 -48 -134 -112 -134 -122 0 -5 15 4 33 21 40 39 125
73 189 76 26 1 48 4 48 8 0 5 -88 39 -101 39 -3 0 -19 -10 -35 -22z"></path>
<path d="M800 4631 c0 -5 45 -39 100 -75 55 -36 100 -70 100 -76 0 -15 -4 -13
-77 34 -86 55 -133 79 -141 72 -8 -8 -9 -7 108 -76 78 -47 108 -60 120 -53 35
22 20 41 -89 112 -112 73 -121 78 -121 62z"></path>
<path d="M2380 4610 c0 -5 18 -10 40 -10 22 0 40 5 40 10 0 6 -18 10 -40 10
-22 0 -40 -4 -40 -10z"></path>
<path d="M6143 4565 c-8 -36 -8 -45 3 -45 8 0 14 6 14 14 0 7 3 28 6 45 10 49
-11 36 -23 -14z"></path>
<path d="M6341 4516 l-42 -64 32 -51 c38 -61 53 -59 19 4 l-24 43 28 42 c39
59 53 61 98 10 25 -28 38 -37 38 -26 0 17 -83 106 -99 106 -5 0 -27 -29 -50
-64z"></path>
<path d="M2557 4563 c-10 -9 -9 -23 2 -23 5 0 11 7 15 15 5 15 -5 20 -17 8z"></path>
<path d="M4450 4561 c0 -5 5 -13 10 -16 6 -3 10 -2 10 4 0 5 -4 13 -10 16 -5
3 -10 2 -10 -4z"></path>
<path d="M750 4517 c0 -23 -7 -52 -15 -64 -13 -19 -13 -21 1 -19 9 1 20 9 25
17 12 19 11 109 -1 109 -5 0 -10 -19 -10 -43z"></path>
<path d="M6527 4438 c39 -97 45 -108 59 -108 10 0 10 6 -2 28 -33 64 -7 69 62
10 95 -81 186 -174 260 -265 71 -87 94 -108 94 -82 0 18 -119 159 -215 255
-83 83 -257 224 -276 224 -4 0 4 -28 18 -62z"></path>
<path d="M6108 4483 c-40 -6 -34 -19 10 -27 49 -7 124 -72 145 -124 10 -25 29
-47 52 -61 46 -27 47 -27 43 6 -2 22 -8 28 -27 28 -24 0 -28 5 -91 108 -6 10
-7 17 -1 17 18 0 68 -50 81 -80 7 -16 16 -30 21 -30 13 0 11 6 -10 49 -26 50
-81 97 -128 110 -38 11 -46 11 -95 4z"></path>
<path d="M5120 4394 c-25 -65 6 -193 56 -235 24 -20 24 -6 -1 74 -14 43 -25
102 -25 132 0 59 -14 72 -30 29z"></path>
<path d="M5254 4376 c-41 -41 -43 -73 -8 -115 45 -54 127 -49 168 11 42 59 -7
138 -84 138 -34 0 -48 -6 -76 -34z m76 -60 c6 -8 10 -25 8 -38 -4 -32 -52 -38
-68 -9 -22 43 29 83 60 47z"></path>
<path d="M1806 4372 c-4 -6 -27 -8 -61 -5 -50 5 -56 4 -84 -25 -43 -42 -42
-83 3 -128 47 -47 104 -48 148 -4 27 28 30 36 25 76 -2 24 -1 47 4 50 5 3 9
10 9 15 0 6 -4 8 -9 4 -6 -3 -14 2 -19 11 -6 10 -12 13 -16 6z m-6 -57 c26
-32 -13 -81 -47 -59 -35 22 -23 74 17 74 10 0 23 -7 30 -15z"></path>
<path d="M6147 4369 c7 -7 15 -10 18 -7 3 3 -2 9 -12 12 -14 6 -15 5 -6 -5z"></path>
<path d="M3074 4360 c-30 -12 -62 -56 -70 -95 -15 -80 40 -145 122 -145 61 0
76 16 72 75 -3 50 -3 50 -40 53 -43 4 -53 -15 -10 -20 24 -3 27 -7 27 -43 l0
-40 -43 -3 c-56 -4 -88 17 -101 66 -24 88 28 150 116 138 24 -3 43 -2 43 3 0
21 -75 28 -116 11z"></path>
<path d="M3820 4250 c0 -73 4 -120 10 -120 6 0 10 47 10 120 0 73 -4 120 -10
120 -6 0 -10 -47 -10 -120z"></path>
<path d="M5980 4358 c0 -7 9 -37 20 -67 12 -29 24 -89 27 -133 6 -84 13 -97
34 -72 18 22 -3 159 -35 230 -23 50 -46 71 -46 42z"></path>
<path d="M5605 4344 c-72 -27 -75 -38 -21 -85 55 -49 93 -118 110 -203 8 -38
18 -62 27 -64 23 -4 106 56 129 93 32 53 35 95 11 151 -12 27 -32 60 -44 73
-46 50 -132 64 -212 35z m127 -14 c26 0 87 -58 103 -98 17 -40 20 -98 5 -107
-6 -4 -27 2 -47 12 -26 14 -40 29 -45 51 -5 18 -27 49 -48 70 -51 48 -54 91
-5 78 11 -3 28 -6 37 -6z m-50 -87 c42 -46 69 -109 66 -155 -3 -41 -28 -68
-28 -31 0 42 -32 124 -65 168 -29 37 -32 45 -17 45 10 0 30 -12 44 -27z"></path>
<path d="M6520 4337 c0 -15 -1 -30 -2 -34 -1 -5 6 -9 16 -11 14 -3 16 1 10 25
-9 40 -24 52 -24 20z"></path>
<path d="M1905 4230 c0 -66 3 -120 7 -120 12 0 31 82 31 133 -1 45 -19 107
-32 107 -3 0 -6 -54 -6 -120z"></path>
<path d="M612 4311 c4 -13 18 -16 19 -4 0 4 -5 9 -11 12 -7 2 -11 -2 -8 -8z"></path>
<path d="M3269 4281 c-33 -33 -38 -75 -14 -120 38 -74 145 -41 145 44 0 65
-33 104 -88 105 -8 0 -27 -13 -43 -29z m91 -11 c42 -42 15 -130 -40 -130 -35
0 -60 32 -60 77 0 37 29 73 60 73 11 0 29 -9 40 -20z"></path>
<path d="M3465 4285 c-55 -54 -19 -165 53 -165 73 0 107 116 49 166 -36 31
-71 31 -102 -1z m91 -16 c25 -27 24 -97 -2 -116 -45 -33 -94 -2 -94 60 0 69
55 101 96 56z"></path>
<path d="M3655 4289 c-17 -17 -17 -27 -9 -80 9 -53 8 -64 -8 -84 -24 -31 -23
-51 4 -69 49 -34 138 -3 138 48 0 33 -19 46 -68 46 -36 0 -43 3 -40 18 2 10
14 18 30 20 35 4 54 29 60 77 l5 40 -47 2 c-37 2 -51 -2 -65 -18z m75 -13 c6
-8 10 -25 8 -38 -2 -19 -9 -23 -38 -23 -29 0 -36 4 -38 23 -4 28 14 52 38 52
10 0 23 -7 30 -14z m28 -173 c6 -42 -87 -60 -111 -21 -19 29 9 49 62 46 39 -3
47 -7 49 -25z"></path>
<path d="M3914 4287 c-22 -19 -27 -33 -28 -71 -1 -41 3 -51 28 -72 21 -19 38
-24 64 -22 19 2 37 8 39 15 3 8 -8 10 -34 6 -42 -5 -70 10 -75 42 -3 18 4 21
57 25 53 4 60 8 63 27 4 27 -38 73 -67 73 -11 0 -32 -10 -47 -23z m80 -16 c25
-28 12 -41 -40 -41 -48 0 -55 11 -27 42 21 23 45 23 67 -1z"></path>
<path d="M6570 4235 c0 -43 4 -75 10 -75 6 0 10 32 10 75 0 43 -4 75 -10 75
-6 0 -10 -32 -10 -75z"></path>
<path d="M6385 4291 c-3 -5 -1 -12 5 -16 5 -3 10 1 10 9 0 18 -6 21 -15 7z"></path>
<path d="M1280 4190 c0 -21 -29 -29 -31 -7 -1 6 -4 1 -8 -13 -5 -18 -1 -34 15
-58 17 -24 21 -42 17 -67 -3 -21 1 -52 10 -78 9 -23 17 -53 19 -67 2 -21 8
-25 35 -25 27 0 32 -3 27 -17 -4 -14 0 -18 20 -18 32 0 32 5 4 66 -26 58 -28
170 -5 247 9 29 11 49 5 53 -13 8 -58 -4 -58 -16 0 -6 -7 -10 -15 -10 -8 0
-15 7 -15 15 0 8 -4 15 -10 15 -5 0 -10 -9 -10 -20z m66 -132 c-1 -62 3 -124
8 -138 9 -25 8 -25 -12 -6 -48 42 -60 180 -21 230 11 14 22 26 23 26 2 0 3
-51 2 -112z"></path>
<path d="M6760 4181 c0 -5 5 -13 10 -16 6 -3 10 -2 10 4 0 5 -4 13 -10 16 -5
3 -10 2 -10 -4z"></path>
<path d="M1201 4163 c-82 -57 -61 -237 34 -290 43 -24 55 -28 55 -15 0 5 -18
18 -40 31 -46 26 -68 61 -76 125 -7 50 7 103 37 135 26 28 20 36 -10 14z"></path>
<path d="M570 4145 c0 -8 5 -15 10 -15 6 0 10 7 10 15 0 8 -4 15 -10 15 -5 0
-10 -7 -10 -15z"></path>
<path d="M5440 4110 c0 -5 9 -10 20 -10 11 0 20 5 20 10 0 6 -9 10 -20 10 -11
0 -20 -4 -20 -10z"></path>
<path d="M5530 4110 c0 -5 6 -10 14 -10 23 0 57 -51 54 -79 -2 -16 -12 -30
-25 -36 -21 -9 -32 -25 -17 -25 19 0 64 44 64 63 0 24 -23 64 -48 85 -19 15
-42 16 -42 2z"></path>
<path d="M6556 4108 c-6 -14 11 -39 69 -105 42 -49 95 -116 118 -150 31 -47
47 -63 64 -63 28 0 31 16 4 23 -10 2 -47 42 -82 88 -35 46 -84 107 -110 134
-26 28 -49 59 -51 70 -4 18 -6 18 -12 3z"></path>
<path d="M5373 4095 c-42 -18 -47 -55 -7 -55 21 0 24 3 19 21 -5 15 -2 22 14
26 12 3 21 9 21 14 0 12 -9 11 -47 -6z"></path>
<path d="M6155 4100 c-3 -5 -17 -10 -31 -10 -13 0 -24 -4 -24 -10 0 -5 6 -10
13 -10 18 0 67 24 67 33 0 10 -18 9 -25 -3z"></path>
<path d="M6216 4055 c-11 -8 -17 -18 -14 -21 11 -10 48 7 48 22 0 18 -10 17
-34 -1z"></path>
<path d="M6265 4031 c-7 -12 41 -81 56 -81 13 0 11 6 -17 47 -32 47 -31 46
-39 34z"></path>
<path d="M6100 4010 c0 -5 5 -10 11 -10 5 0 7 5 4 10 -3 6 -8 10 -11 10 -2 0
-4 -4 -4 -10z"></path>
<path d="M615 3988 c4 -14 0 -41 -9 -62 -18 -43 -3 -49 19 -6 19 37 19 64 -1
81 -13 11 -14 9 -9 -13z"></path>
<path d="M5481 3990 c16 -24 39 -38 39 -23 0 4 -13 17 -28 28 l-27 19 16 -24z"></path>
<path d="M956 3982 c-3 -5 1 -15 10 -22 9 -8 12 -20 8 -29 -4 -9 -6 -26 -5
-39 0 -14 -6 -25 -17 -28 -9 -3 -25 -10 -34 -15 -10 -5 -25 -9 -33 -9 -42 0 5
-181 91 -353 40 -79 96 -169 115 -183 18 -13 219 -77 225 -71 2 2 -5 16 -16
30 -49 62 -63 143 -35 197 l15 29 -58 45 c-122 94 -194 223 -219 396 -6 39
-13 56 -25 58 -9 2 -19 -1 -22 -6z"></path>
<path d="M6120 3971 c0 -6 5 -13 10 -16 6 -3 10 1 10 9 0 9 -4 16 -10 16 -5 0
-10 -4 -10 -9z"></path>
<path d="M3530 3820 c0 -73 4 -120 10 -120 6 0 10 47 10 120 0 73 -4 120 -10
120 -6 0 -10 -47 -10 -120z"></path>
<path d="M2785 3918 c-3 -8 -4 -61 -3 -119 l3 -104 44 -3 c87 -6 131 35 131
122 0 36 -6 52 -28 77 -24 27 -37 33 -85 37 -43 3 -58 1 -62 -10z m130 -33
c20 -19 25 -34 25 -75 0 -70 -31 -103 -93 -98 l-42 3 -3 84 c-2 46 -1 90 2 98
9 24 84 16 111 -12z"></path>
<path d="M6350 3918 c-14 -5 -71 -8 -132 -6 -60 3 -108 1 -108 -2 0 -29 159
-72 320 -87 74 -7 74 -8 1 70 -38 40 -43 41 -81 25z m58 -50 c3 -14 -3 -16
-35 -11 -45 7 -47 8 -38 23 11 17 69 8 73 -12z"></path>
<path d="M750 3871 c0 -6 9 -11 20 -11 11 0 20 -4 20 -9 0 -5 -41 -16 -90 -26
-50 -10 -93 -21 -96 -26 -8 -13 13 -11 133 12 113 21 135 31 116 50 -16 16
-103 25 -103 10z"></path>
<path d="M5202 3817 c6 -74 39 -143 83 -171 38 -25 41 -14 10 39 -15 25 -38
78 -50 118 -31 96 -50 102 -43 14z"></path>
<path d="M620 3860 c0 -5 20 -10 45 -10 25 0 45 5 45 10 0 6 -20 10 -45 10
-25 0 -45 -4 -45 -10z"></path>
<path d="M3021 3844 c-23 -29 -28 -92 -11 -124 12 -23 65 -42 96 -34 37 10 28
26 -10 19 -48 -9 -75 19 -72 73 1 22 8 47 15 56 17 20 55 21 71 1 20 -24 4
-45 -35 -45 -19 0 -35 -5 -35 -11 0 -6 21 -9 53 -7 51 3 52 3 49 33 -7 66 -81
90 -121 39z"></path>
<path d="M3290 3843 c-36 -95 -43 -113 -50 -113 -3 0 -17 29 -29 65 -13 36
-27 65 -32 65 -5 0 -9 -4 -9 -8 0 -17 52 -138 65 -151 12 -12 16 -11 24 10 5
13 21 52 34 86 14 35 21 65 16 68 -5 4 -14 -6 -19 -22z"></path>
<path d="M3362 3847 c-16 -16 -22 -36 -22 -66 0 -53 14 -79 47 -92 29 -11 83
-3 83 13 0 6 -12 7 -30 3 -37 -8 -80 16 -80 45 0 16 8 19 58 22 51 3 57 5 60
26 9 64 -71 97 -116 49z m88 -12 c21 -26 4 -45 -39 -45 -45 0 -57 11 -41 40
13 24 62 27 80 5z"></path>
<path d="M3622 3847 c-16 -16 -22 -36 -22 -66 0 -54 12 -75 49 -91 84 -34 148
93 80 161 -27 27 -80 25 -107 -4z m96 -9 c7 -7 12 -33 12 -60 0 -40 -4 -50
-26 -65 -24 -15 -29 -15 -53 -2 -20 12 -27 23 -29 56 -4 59 11 83 51 83 18 0
38 -5 45 -12z"></path>
<path d="M3823 3863 c-22 -4 -23 -8 -23 -124 0 -73 4 -119 10 -119 6 0 10 18
10 41 0 36 2 40 18 33 62 -28 112 10 112 85 0 75 -39 101 -127 84z m97 -32
c17 -33 12 -89 -10 -111 -24 -24 -38 -25 -68 -4 -17 12 -22 25 -22 63 0 26 5
52 12 59 20 20 76 15 88 -7z"></path>
<path d="M4011 3844 c-55 -70 4 -178 85 -158 37 9 29 26 -10 19 -48 -9 -75 19
-72 73 1 22 8 47 15 56 26 31 81 14 81 -26 0 -14 -8 -18 -40 -18 -22 0 -40 -5
-40 -11 0 -6 21 -9 53 -7 44 3 52 6 55 24 2 11 -7 32 -18 47 -29 37 -80 37
-109 1z"></path>
<path d="M4225 3860 c-4 -6 -15 -8 -26 -5 -18 6 -19 1 -19 -74 0 -44 5 -83 10
-86 6 -4 10 14 10 47 0 64 17 102 48 106 12 2 22 8 22 13 0 12 -37 12 -45 -1z"></path>
<path d="M5363 3835 c-32 -32 -35 -40 -30 -73 20 -123 207 -102 207 24 0 15
-12 38 -29 55 -23 23 -38 29 -71 29 -35 0 -48 -6 -77 -35z m81 -64 c25 -27 5
-63 -31 -59 -38 4 -52 32 -29 57 24 26 38 26 60 2z"></path>
<path d="M1538 3824 c-83 -45 -55 -160 43 -173 36 -5 45 -10 47 -28 3 -22 22
-33 22 -13 0 6 7 10 15 10 11 0 14 7 10 23 -3 12 1 36 9 52 9 17 16 36 16 43
0 29 -33 74 -65 88 -43 17 -63 17 -97 -2z m118 -45 c23 -25 9 -53 -29 -57 -36
-4 -56 32 -31 59 22 24 36 24 60 -2z"></path>
<path d="M425 3794 c52 -81 199 -244 210 -233 2 3 -11 43 -30 88 -19 45 -35
91 -35 102 0 23 -58 52 -125 65 l-39 7 19 -29z"></path>
<path d="M1789 3768 c-11 -44 -46 -115 -75 -155 -27 -38 9 -29 42 10 33 40 49
78 58 140 9 60 -9 63 -25 5z"></path>
<path d="M6850 3790 c0 -6 32 -10 75 -10 43 0 75 4 75 10 0 6 -32 10 -75 10
-43 0 -75 -4 -75 -10z"></path>
<path d="M5900 3733 c-14 -20 -52 -58 -86 -85 l-61 -47 12 -48 c7 -27 18 -48
25 -48 19 0 50 46 52 78 2 22 9 30 30 34 52 10 95 83 77 131 -11 30 -20 28
-49 -15z"></path>
<path d="M3016 3503 c-9 -10 -7 -71 3 -77 6 -4 5 -20 0 -41 -12 -43 -8 -131 6
-127 6 1 10 32 11 69 1 52 5 69 19 79 50 37 85 2 85 -84 0 -35 4 -62 10 -62
15 0 12 133 -4 155 -14 20 -67 25 -100 10 -18 -8 -19 -5 -13 33 7 38 -2 60
-17 45z"></path>
<path d="M3465 3498 c-9 -22 -1 -238 8 -238 5 0 9 54 9 120 1 114 -5 151 -17
118z"></path>
<path d="M2863 3485 c-40 -17 -63 -61 -63 -121 0 -39 5 -51 34 -80 29 -29 41
-34 80 -34 25 0 46 5 46 10 0 6 -18 10 -39 10 -53 0 -69 8 -86 41 -45 86 14
181 101 164 34 -6 48 8 18 19 -25 9 -56 6 -91 -9z"></path>
<path d="M3390 3380 c0 -73 4 -120 10 -120 6 0 10 47 10 120 0 73 -4 120 -10
120 -6 0 -10 -47 -10 -120z"></path>
<path d="M5506 3452 c-18 -40 -18 -103 0 -109 6 -2 9 10 6 30 -2 18 3 51 12
71 19 45 19 46 8 46 -5 0 -17 -17 -26 -38z"></path>
<path d="M3243 3433 c-25 -9 -13 -22 15 -17 19 4 32 1 41 -10 20 -24 7 -42
-34 -49 -20 -3 -43 -11 -51 -18 -17 -14 -18 -61 -2 -77 13 -13 70 -16 82 -4 4
4 13 7 19 7 8 0 13 25 15 70 3 62 0 72 -19 87 -21 18 -42 21 -66 11z m64 -109
c10 -27 -11 -49 -48 -49 -25 0 -35 5 -37 19 -8 38 71 65 85 30z"></path>
<path d="M3563 3416 c-24 -21 -28 -32 -28 -76 0 -42 4 -55 24 -71 24 -20 101
-27 101 -9 0 6 -18 10 -40 10 -31 0 -43 5 -56 26 -22 33 -11 42 56 46 48 3 55
6 58 25 4 27 -38 73 -67 73 -11 0 -33 -11 -48 -24z m81 -18 c21 -29 12 -38
-39 -38 -52 0 -63 12 -35 40 26 26 55 26 74 -2z"></path>
<path d="M3777 3433 c-4 -3 -17 -7 -30 -8 -21 -2 -22 -7 -25 -83 -2 -52 1 -82
8 -82 6 0 10 25 10 60 0 47 4 64 20 80 48 48 90 12 90 -78 0 -35 4 -62 10 -62
6 0 10 28 10 65 0 57 -3 69 -25 90 -23 24 -54 32 -68 18z"></path>
<path d="M3930 3415 c-21 -22 -23 -29 -13 -58 13 -38 9 -100 -6 -105 -20 -7
-12 -49 14 -66 33 -22 77 -20 109 5 48 38 23 85 -49 91 -50 4 -56 31 -8 36 60
6 86 98 32 113 -42 12 -55 10 -79 -16z m78 -7 c39 -39 -19 -98 -59 -62 -33 30
-18 74 26 74 12 0 26 -5 33 -12z m22 -163 c20 -24 -14 -55 -61 -55 -43 0 -54
11 -45 46 6 21 12 24 50 24 27 0 48 -6 56 -15z"></path>
<path d="M4135 3428 c-34 -18 -45 -40 -45 -88 0 -64 30 -93 91 -88 24 2 43 7
41 13 -1 5 -19 8 -40 6 -28 -1 -43 3 -56 18 -30 33 -14 50 51 53 55 3 58 4 55
28 -3 26 -44 70 -65 70 -7 0 -21 -6 -32 -12z m60 -22 c30 -22 12 -46 -34 -46
-49 0 -62 17 -31 42 27 22 40 23 65 4z"></path>
<path d="M1750 3088 c0 -8 9 -23 21 -34 12 -10 30 -32 41 -47 20 -27 20 -30 3
-73 -23 -62 -11 -69 15 -8 24 55 22 63 -41 133 -21 24 -39 37 -39 29z"></path>
<path d="M5141 3039 c-41 -47 -43 -51 -31 -80 14 -34 36 -52 28 -23 -3 10 -9
26 -13 36 -4 11 5 29 30 57 20 22 35 45 33 50 -1 5 -23 -13 -47 -40z"></path>
<path d="M3407 3063 c-11 -11 -8 -243 3 -243 6 0 10 48 10 125 0 69 -1 125 -3
125 -2 0 -7 -3 -10 -7z"></path>
<path d="M3942 2945 c-1 -105 2 -125 14 -125 12 0 15 12 12 64 -3 72 10 96 51
96 41 0 51 -17 51 -92 0 -39 4 -68 10 -68 17 0 12 133 -6 158 -16 23 -77 32
-89 12 -14 -22 -26 4 -20 41 5 30 4 39 -8 39 -11 0 -14 -24 -15 -125z"></path>
<path d="M2681 3041 c-24 -24 -27 -63 -7 -81 8 -6 34 -21 57 -33 60 -31 71
-53 39 -78 -17 -15 -35 -20 -62 -17 -23 2 -37 -1 -35 -7 10 -29 101 -14 123
20 27 42 11 72 -54 103 -59 28 -74 51 -51 78 9 11 26 15 56 12 26 -2 42 1 40
7 -2 5 -22 11 -45 13 -31 2 -46 -2 -61 -17z"></path>
<path d="M3010 2945 c0 -70 4 -115 10 -115 6 0 10 26 10 58 0 69 20 96 67 90
28 -3 28 -4 31 -80 2 -59 6 -78 17 -78 11 0 13 14 8 73 -7 92 -22 111 -80 103
l-43 -6 0 35 c0 19 -4 35 -10 35 -6 0 -10 -45 -10 -115z"></path>
<path d="M1880 3033 c0 -6 7 -16 15 -23 8 -7 15 -20 15 -28 0 -13 3 -13 12 -4
10 10 6 18 -15 39 -15 15 -27 23 -27 16z"></path>
<path d="M1310 3010 c0 -5 5 -10 11 -10 5 0 7 5 4 10 -3 6 -8 10 -11 10 -2 0
-4 -4 -4 -10z"></path>
<path d="M2876 2979 c-22 -17 -26 -28 -26 -70 0 -40 5 -55 25 -74 24 -25 85
-35 85 -15 0 6 -13 10 -28 10 -39 0 -62 28 -62 77 0 46 23 73 63 73 15 0 27 5
27 10 0 18 -57 11 -84 -11z"></path>
<path d="M3242 2993 c-19 -7 -42 -58 -42 -93 0 -21 9 -41 29 -61 61 -60 131
-19 131 76 0 61 -60 101 -118 78z m82 -35 c34 -49 7 -128 -44 -128 -31 0 -60
36 -60 73 0 45 25 77 60 77 18 0 34 -8 44 -22z"></path>
<path d="M3503 2993 c-26 -10 -11 -20 30 -19 l42 1 1 -55 c2 -68 -13 -93 -53
-88 -24 3 -28 7 -28 33 0 27 4 30 33 33 35 4 45 22 12 22 -36 0 -70 -30 -70
-61 0 -43 62 -67 90 -34 6 8 17 13 23 12 8 -1 13 20 15 62 2 49 -1 68 -14 82
-16 18 -54 24 -81 12z"></path>
<path d="M3683 2993 c-22 -4 -23 -9 -23 -89 0 -49 4 -84 10 -84 6 0 10 27 10
61 0 69 12 99 40 99 11 0 20 5 20 10 0 10 -16 11 -57 3z"></path>
<path d="M3797 2987 c-33 -24 -18 -59 36 -85 26 -12 47 -28 47 -36 0 -25 -28
-39 -66 -33 -25 4 -34 2 -31 -6 6 -19 66 -20 93 -2 15 9 24 25 24 40 0 20 -10
30 -47 48 -34 15 -48 28 -48 42 0 17 6 20 43 19 26 0 41 3 39 10 -5 16 -69 19
-90 3z"></path>
<path d="M4265 2990 c-4 -6 -14 -9 -23 -8 -15 3 -17 -11 -20 -119 -2 -80 1
-123 8 -123 5 0 10 18 10 40 l0 40 38 -6 c55 -9 83 17 89 82 4 40 1 54 -17 77
-22 28 -72 38 -85 17z m69 -32 c32 -46 9 -128 -35 -128 -45 0 -59 18 -59 73 0
29 5 58 12 65 20 20 65 14 82 -10z"></path>
<path d="M4140 2905 c0 -50 4 -85 10 -85 6 0 10 35 10 85 0 50 -4 85 -10 85
-6 0 -10 -35 -10 -85z"></path>
<path d="M5183 2974 c-3 -8 -1 -20 6 -27 8 -8 11 -4 11 16 0 30 -7 35 -17 11z"></path>
<path d="M1786 2861 c-4 -7 -5 -15 -2 -18 9 -9 19 4 14 18 -4 11 -6 11 -12 0z"></path>
<path d="M5100 2793 c-25 -19 -49 -38 -53 -42 -10 -9 23 -131 35 -131 10 0 11
-3 -8 60 l-16 54 47 44 c25 24 45 45 43 47 -2 2 -23 -13 -48 -32z"></path>
<path d="M1800 2804 c0 -4 21 -25 46 -47 41 -36 45 -44 41 -74 -8 -45 10 -42
19 4 6 34 4 38 -42 79 -47 41 -64 51 -64 38z"></path>
<path d="M1552 2791 c4 -13 18 -16 19 -4 0 4 -5 9 -11 12 -7 2 -11 -2 -8 -8z"></path>
<path d="M1625 2780 c-3 -5 -1 -10 4 -10 6 0 11 5 11 10 0 6 -2 10 -4 10 -3 0
-8 -4 -11 -10z"></path>
<path d="M1925 2780 c3 -5 11 -10 16 -10 6 0 7 5 4 10 -3 6 -11 10 -16 10 -6
0 -7 -4 -4 -10z"></path>
<path d="M5145 2750 c-16 -16 -25 -33 -22 -37 4 -3 8 -4 10 -2 1 2 15 19 31
37 37 40 20 43 -19 2z"></path>
<path d="M1962 2749 c2 -7 10 -15 17 -17 8 -3 12 1 9 9 -2 7 -10 15 -17 17 -8
3 -12 -1 -9 -9z"></path>
<path d="M5460 2750 c0 -5 7 -10 15 -10 8 0 15 5 15 10 0 6 -7 10 -15 10 -8 0
-15 -4 -15 -10z"></path>
<path d="M1630 2700 c0 -11 5 -20 10 -20 6 0 10 9 10 20 0 11 -4 20 -10 20 -5
0 -10 -9 -10 -20z"></path>
<path d="M1260 2679 c0 -5 5 -7 10 -4 6 3 10 8 10 11 0 2 -4 4 -10 4 -5 0 -10
-5 -10 -11z"></path>
<path d="M5492 2678 c-12 -16 -27 -68 -18 -68 7 0 38 72 33 77 -2 2 -9 -2 -15
-9z"></path>
<path d="M1434 2664 c3 -9 9 -27 12 -40 7 -26 24 -33 24 -9 0 21 -22 65 -33
65 -5 0 -6 -7 -3 -16z"></path>
<path d="M5527 2643 c-6 -34 -3 -52 7 -42 10 10 17 79 8 79 -5 0 -12 -17 -15
-37z"></path>
<path d="M1340 2651 c0 -28 21 -81 32 -81 6 0 7 9 3 23 -4 12 -9 34 -12 50 -6
30 -23 37 -23 8z"></path>
<path d="M5625 2598 c4 -35 11 -67 15 -72 16 -16 40 3 40 31 0 16 11 45 25 66
14 20 21 37 15 37 -5 0 -20 -16 -32 -35 -27 -41 -42 -40 -46 3 -2 18 -8 32
-14 32 -6 0 -8 -22 -3 -62z"></path>
<path d="M5575 2628 c-2 -7 -9 -30 -15 -50 -8 -27 -17 -38 -31 -38 -25 0 -35
-25 -19 -45 16 -19 33 -7 55 38 17 34 31 107 21 107 -4 0 -8 -6 -11 -12z"></path>
<path d="M1660 2610 c0 -12 8 -16 34 -16 39 1 33 21 -9 29 -19 3 -25 0 -25
-13z"></path>
<path d="M1870 2620 c0 -5 5 -10 10 -10 6 0 10 5 10 10 0 6 -4 10 -10 10 -5 0
-10 -4 -10 -10z"></path>
<path d="M5768 2625 c-59 -96 -85 -175 -58 -175 6 0 10 11 10 25 0 28 16 68
43 108 10 15 17 33 15 39 -3 7 -7 8 -10 3z"></path>
<path d="M5327 2603 c-12 -12 -7 -22 8 -17 8 4 15 10 15 15 0 11 -14 12 -23 2z"></path>
<path d="M5433 2586 c-15 -17 -28 -23 -43 -19 -18 5 -21 2 -18 -18 5 -37 33
-34 63 5 31 41 30 69 -2 32z"></path>
<path d="M1617 2558 c-8 -30 0 -36 18 -12 18 24 19 34 1 34 -7 0 -16 -10 -19
-22z"></path>
<path d="M5030 2562 c-65 -33 -80 -47 -80 -69 0 -13 5 -23 10 -23 6 0 10 9 10
19 0 12 18 30 50 50 28 17 50 33 50 36 0 7 -3 7 -40 -13z"></path>
<path d="M1698 2529 c-15 -19 -42 -68 -60 -109 -19 -41 -48 -89 -65 -105 -16
-17 -33 -42 -36 -57 -26 -102 -29 -518 -4 -518 7 0 8 47 3 133 -6 133 6 326
25 383 5 18 19 40 31 50 11 11 40 59 65 109 24 49 51 98 60 107 8 9 13 22 11
29 -3 8 -15 -2 -30 -22z"></path>
<path d="M1913 2520 c14 -11 29 -20 35 -20 19 0 42 -38 42 -68 0 -18 5 -32 10
-32 6 0 10 18 10 40 0 32 -5 42 -22 50 -13 6 -36 19 -53 29 -40 26 -54 26 -22
1z"></path>
<path d="M2044 2521 c11 -11 23 -21 28 -21 14 0 -1 19 -25 31 -22 12 -22 12
-3 -10z"></path>
<path d="M5322 2533 c24 -54 62 -115 65 -106 5 15 -46 113 -59 113 -6 0 -8 -3
-6 -7z"></path>
<path d="M1308 2458 c2 -35 9 -82 17 -105 13 -41 13 -44 -35 -153 -59 -133
-91 -231 -119 -367 -22 -109 -26 -143 -13 -143 4 0 18 55 31 122 27 141 74
285 135 413 42 85 43 90 28 114 -9 14 -18 56 -22 99 -3 42 -10 77 -16 79 -7 2
-9 -18 -6 -59z"></path>
<path d="M3170 2485 c-20 -21 -22 -28 -12 -50 6 -14 16 -25 22 -25 13 0 13 6
-2 29 -15 24 -4 51 22 51 11 0 20 5 20 10 0 18 -26 10 -50 -15z"></path>
<path d="M3249 2480 c-12 -16 -26 -27 -31 -24 -4 3 -8 -7 -8 -22 0 -21 3 -24
14 -15 7 6 20 9 28 6 11 -5 14 1 10 24 -5 36 18 51 45 30 15 -13 15 -12 4 9
-16 30 -36 28 -62 -8z"></path>
<path d="M3357 2503 c-13 -12 -7 -20 16 -19 18 1 22 -4 22 -32 0 -23 4 -31 14
-27 7 3 20 0 27 -6 8 -6 14 -8 15 -3 0 5 2 22 2 38 1 16 8 31 14 33 19 7 28
-27 14 -49 -17 -27 -5 -37 14 -12 21 27 15 53 -18 72 -27 16 -29 16 -43 -2
-13 -18 -15 -18 -32 -3 -20 18 -34 21 -45 10z"></path>
<path d="M3710 2495 c-7 -9 -21 -13 -31 -10 -16 5 -19 1 -19 -24 0 -21 -5 -31
-15 -31 -10 0 -15 11 -15 35 0 19 -5 35 -11 35 -6 0 -9 -17 -7 -42 2 -35 7
-44 24 -46 11 -2 27 4 34 13 12 14 15 14 31 -1 21 -19 40 -11 21 8 -19 19 -14
49 8 55 11 3 20 9 20 14 0 14 -26 10 -40 -6z"></path>
<path d="M3550 2461 c0 -22 5 -43 10 -46 6 -4 10 12 10 39 0 25 -4 46 -10 46
-5 0 -10 -18 -10 -39z"></path>
<path d="M3810 2489 c0 -6 -8 -8 -19 -4 -16 5 -19 0 -23 -30 -4 -34 14 -51 25
-22 4 9 8 8 16 -3 5 -8 13 -11 17 -7 4 3 1 14 -6 22 -10 12 -10 19 -2 27 15
15 15 28 2 28 -5 0 -10 -5 -10 -11z"></path>
<path d="M5042 2484 c-21 -15 -30 -34 -14 -34 7 1 47 50 40 50 -2 0 -14 -7
-26 -16z"></path>
<path d="M2290 2470 c0 -6 122 -10 345 -10 223 0 345 4 345 10 0 6 -122 10
-345 10 -223 0 -345 -4 -345 -10z"></path>
<path d="M4050 2470 c0 -9 308 -18 413 -12 25 2 37 -2 37 -11 0 -24 65 -37
108 -22 72 25 109 35 125 35 9 0 17 4 17 10 0 5 -134 9 -350 10 -227 0 -350
-3 -350 -10z"></path>
<path d="M4828 2463 c-20 -2 -42 -11 -48 -19 -7 -8 -19 -14 -27 -14 -8 0 -27
-7 -43 -15 -16 -8 -40 -16 -54 -17 -14 -1 -24 -7 -23 -12 1 -5 -7 -12 -18 -15
-50 -15 -240 -147 -340 -235 -110 -97 -253 -279 -317 -403 -6 -13 -19 -23 -30
-23 -14 0 -18 -8 -18 -40 0 -23 -7 -54 -15 -71 -9 -16 -13 -34 -10 -39 10 -16
45 -12 45 5 0 20 85 192 115 231 14 18 25 36 25 39 0 4 32 47 71 96 122 154
278 284 454 380 71 39 106 55 222 99 19 7 48 10 68 6 37 -7 43 0 25 35 -6 10
-18 18 -28 17 -9 -1 -34 -3 -54 -5z"></path>
<path d="M3295 2429 c-4 -6 -5 -13 -2 -16 7 -7 27 6 27 18 0 12 -17 12 -25 -2z"></path>
<path d="M4314 2405 c-38 -19 -95 -55 -126 -80 -60 -47 -153 -153 -172 -195
-6 -14 -18 -36 -27 -50 -9 -14 -22 -47 -29 -75 -8 -27 -17 -52 -21 -55 -18
-12 -38 -210 -21 -210 17 0 42 98 36 144 -5 31 -3 46 5 46 6 0 11 -9 11 -20 0
-31 19 -24 36 14 18 36 12 106 -8 106 -18 0 2 51 40 102 47 63 120 138 133
138 5 0 14 11 19 25 5 14 17 25 26 25 9 0 35 15 58 33 23 18 60 41 84 51 23
11 42 23 42 28 0 14 -14 9 -86 -27z"></path>
<path d="M5700 2410 c0 -11 5 -20 10 -20 6 0 10 9 10 20 0 11 -4 20 -10 20 -5
0 -10 -9 -10 -20z"></path>
<path d="M4407 2405 c-32 -19 -28 -31 14 -40 35 -8 107 21 92 36 -18 18 -77
20 -106 4z"></path>
<path d="M4943 2403 c-21 -8 -15 -19 27 -47 38 -25 44 -26 76 -14 19 6 33 17
31 22 -4 11 -93 47 -112 45 -5 0 -16 -3 -22 -6z"></path>
<path d="M4820 2385 c-11 -13 -10 -14 4 -9 9 3 16 10 16 15 0 13 -6 11 -20 -6z"></path>
<path d="M4555 2380 c-3 -5 1 -10 9 -10 9 0 16 5 16 10 0 6 -4 10 -9 10 -6 0
-13 -4 -16 -10z"></path>
<path d="M1980 2350 c0 -11 5 -20 10 -20 6 0 10 9 10 20 0 11 -4 20 -10 20 -5
0 -10 -9 -10 -20z"></path>
<path d="M4510 2358 c-16 -7 -20 -12 -12 -15 8 -3 21 2 30 11 19 18 17 19 -18
4z"></path>
<path d="M4828 2349 c-21 -11 -38 -24 -38 -29 0 -5 18 -21 39 -36 l39 -25 51
25 c28 15 51 30 51 35 0 14 -64 51 -86 51 -11 -1 -36 -10 -56 -21z m87 -12
c17 -13 17 -15 -6 -30 -29 -21 -53 -22 -68 -3 -10 11 -7 17 11 30 27 19 39 20
63 3z"></path>
<path d="M5416 2355 c4 -11 15 -29 24 -40 28 -33 38 -57 45 -117 4 -32 12 -58
17 -58 11 0 2 100 -13 134 -12 30 -81 106 -73 81z"></path>
<path d="M5681 2339 c-13 -29 -11 -36 37 -137 60 -127 104 -255 129 -374 9
-49 21 -88 25 -88 34 0 -50 291 -140 483 -38 83 -44 102 -34 118 14 22 15 29
4 29 -4 0 -13 -14 -21 -31z"></path>
<path d="M4295 2336 c-33 -27 -32 -33 11 -41 19 -4 40 1 62 14 38 24 40 36 10
45 -38 10 -52 7 -83 -18z"></path>
<path d="M4740 2350 c0 -5 6 -10 14 -10 8 0 18 5 21 10 3 6 -3 10 -14 10 -12
0 -21 -4 -21 -10z"></path>
<path d="M5088 2333 c-43 -17 -46 -23 -18 -48 19 -17 22 -17 65 -1 51 20 57
37 20 54 -14 7 -27 12 -28 11 -1 0 -19 -7 -39 -16z"></path>
<path d="M4410 2309 c-44 -27 -43 -26 -35 -39 4 -7 17 -2 37 15 16 14 34 25
39 25 5 0 9 5 9 10 0 15 -11 12 -50 -11z"></path>
<path d="M4653 2307 c-32 -22 -42 -37 -24 -37 16 0 81 41 81 51 0 14 -23 9
-57 -14z"></path>
<path d="M3527 2313 c-4 -3 1 -12 11 -19 16 -12 16 -14 -6 -36 -24 -26 -20
-38 11 -38 13 0 17 5 13 15 -3 9 0 24 6 35 17 26 -14 64 -35 43z"></path>
<path d="M3617 2313 c-11 -10 -8 -83 2 -83 12 0 24 37 16 49 -3 5 -1 12 5 16
5 3 10 -1 10 -9 0 -9 6 -15 12 -13 7 1 14 -8 16 -20 4 -29 22 -30 22 -2 0 16
4 19 20 14 11 -3 20 -3 20 2 -1 15 -51 45 -65 39 -8 -3 -17 -1 -20 4 -7 11
-29 13 -38 3z"></path>
<path d="M3122 2298 c-14 -14 -16 -68 -3 -68 9 0 26 69 18 76 -2 2 -9 -2 -15
-8z"></path>
<path d="M3340 2270 c0 -22 5 -40 10 -40 6 0 10 9 10 20 0 14 7 20 23 20 l22
0 -25 20 c-35 28 -40 25 -40 -20z"></path>
<path d="M2023 2282 c1 -13 -21 -36 -68 -72 -65 -49 -71 -52 -100 -41 -180 65
-336 -184 -229 -366 24 -42 26 -49 14 -80 -17 -50 -5 -52 20 -3 l21 42 -20 22
c-77 81 -65 243 24 332 41 41 48 44 96 44 30 0 63 -7 79 -17 28 -16 28 -16 81
31 29 26 72 59 96 73 46 27 52 37 27 47 -28 11 -44 6 -41 -12z"></path>
<path d="M3300 2265 c0 -19 5 -35 10 -35 6 0 10 16 10 35 0 19 -4 35 -10 35
-5 0 -10 -16 -10 -35z"></path>
<path d="M4703 2280 c-18 -11 -33 -24 -33 -29 0 -14 55 -51 77 -51 20 0 83 36
83 47 0 11 -66 53 -82 53 -7 0 -28 -9 -45 -20z m83 -22 c6 -10 -20 -38 -36
-38 -3 0 -14 6 -25 13 -24 18 -11 37 25 37 16 0 32 -5 36 -12z"></path>
<path d="M4953 2275 c-29 -13 -53 -28 -53 -33 0 -12 38 -4 65 15 27 18 42 16
48 -8 5 -17 9 -19 26 -9 12 6 21 15 21 19 0 8 -45 42 -52 40 -2 0 -27 -11 -55
-24z"></path>
<path d="M3235 2279 c-10 -15 3 -25 16 -12 7 7 7 13 1 17 -6 3 -14 1 -17 -5z"></path>
<path d="M3824 2278 c-4 -6 -2 -14 4 -16 7 -2 12 -13 12 -24 0 -17 3 -18 15
-8 12 10 18 10 30 0 13 -10 15 -9 15 9 0 11 5 20 11 19 6 -2 14 3 16 10 7 18
-37 15 -59 -5 -17 -15 -18 -15 -18 5 0 24 -14 29 -26 10z"></path>
<path d="M4197 2262 c-25 -26 -27 -32 -15 -51 17 -28 26 -26 72 15 42 36 41
48 -4 59 -20 5 -32 -1 -53 -23z"></path>
<path d="M5156 2269 l-38 -21 33 -34 c18 -19 41 -34 51 -34 25 0 108 42 108
54 0 16 -67 56 -92 56 -13 -1 -40 -10 -62 -21z m85 -9 c38 -21 17 -50 -37 -50
-32 0 -43 28 -19 46 23 17 30 17 56 4z"></path>
<path d="M3450 2264 c0 -8 5 -12 10 -9 6 3 10 10 10 16 0 5 -4 9 -10 9 -5 0
-10 -7 -10 -16z"></path>
<path d="M3770 2265 c0 -8 -7 -15 -15 -15 -25 0 -17 -17 11 -24 33 -9 45 2 38
32 -7 25 -34 30 -34 7z"></path>
<path d="M3427 2255 c-4 -8 -2 -17 3 -20 6 -4 10 3 10 14 0 25 -6 27 -13 6z"></path>
<path d="M4560 2251 c-6 -12 -22 -24 -35 -27 -28 -7 -34 -24 -9 -24 24 0 86
40 81 53 -6 20 -25 18 -37 -2z"></path>
<path d="M3150 2240 c0 -5 7 -10 16 -10 8 0 12 5 9 10 -3 6 -10 10 -16 10 -5
0 -9 -4 -9 -10z"></path>
<path d="M4271 2210 c-28 -22 -51 -44 -51 -49 0 -22 16 -15 54 25 23 24 50 44
59 44 9 0 17 5 17 10 0 20 -30 9 -79 -30z"></path>
<path d="M4588 2209 c-35 -26 -35 -33 2 -59 26 -19 35 -20 64 -10 19 6 40 18
47 26 11 13 8 19 -17 39 -36 30 -61 31 -96 4z m63 -10 c16 -8 18 -13 8 -25
-13 -16 -45 -19 -54 -4 -4 6 -1 17 5 25 15 18 16 18 41 4z"></path>
<path d="M4813 2203 c-45 -26 -55 -43 -25 -43 17 0 80 56 71 63 -2 2 -23 -7
-46 -20z"></path>
<path d="M4943 2216 c-18 -6 -33 -15 -34 -21 -1 -5 36 -31 82 -58 46 -26 99
-62 116 -79 18 -18 36 -28 40 -25 4 4 -1 32 -11 61 -15 44 -16 57 -6 76 11 20
9 25 -11 41 -26 20 -49 25 -49 10 0 -5 9 -11 20 -13 29 -4 30 -22 2 -26 -25
-4 -77 13 -102 33 -11 10 -23 10 -47 1z"></path>
<path d="M4117 2192 c-12 -13 -14 -26 -9 -47 11 -38 23 -41 52 -10 21 22 22
27 10 50 -16 30 -31 32 -53 7z"></path>
<path d="M5290 2189 c-24 -11 -46 -22 -48 -24 -8 -7 51 -75 64 -75 14 0 134
57 134 64 0 8 -78 56 -91 55 -7 0 -34 -9 -59 -20z m97 -26 c3 -7 -12 -20 -31
-30 -34 -16 -38 -16 -53 0 -14 13 -14 19 -3 32 16 19 81 17 87 -2z"></path>
<path d="M4426 2148 c-21 -22 -50 -44 -63 -49 -23 -8 -24 -29 -2 -29 16 0 128
94 128 108 2 22 -23 10 -63 -30z"></path>
<path d="M4467 2121 c-26 -22 -47 -44 -45 -48 8 -21 158 24 158 48 0 10 -41
39 -55 39 -6 0 -32 -18 -58 -39z"></path>
<path d="M4720 2145 c-11 -13 -9 -15 15 -15 16 0 25 5 23 12 -7 19 -24 20 -38
3z"></path>
<path d="M4046 2105 c-22 -29 -25 -40 -18 -67 11 -43 23 -44 50 -3 18 26 22
41 17 64 -9 44 -19 45 -49 6z"></path>
<path d="M4160 2100 c-43 -55 -32 -62 18 -12 36 36 43 52 21 52 -4 0 -22 -18
-39 -40z"></path>
<path d="M5393 2101 c-35 -14 -63 -29 -63 -33 0 -4 19 -8 43 -10 42 -3 42 -3
39 -38 -5 -52 -39 -115 -77 -145 -33 -25 -34 -27 -21 -53 21 -41 46 -164 46
-225 0 -70 -33 -199 -65 -253 -14 -24 -21 -45 -17 -48 14 -9 149 92 155 116
52 232 72 367 82 564 6 119 6 122 -16 138 -29 20 -30 20 -106 -13z m83 -62 c0
-30 3 -60 7 -66 4 -6 0 -16 -9 -23 -9 -8 -11 -16 -5 -20 7 -4 7 -25 2 -60 -5
-30 -5 -64 -1 -76 6 -14 4 -29 -5 -42 -8 -11 -17 -48 -19 -83 -3 -35 -6 -64
-6 -64 -4 0 -31 -123 -33 -145 -2 -27 -33 -68 -43 -57 -4 4 -1 13 6 22 7 8 9
22 6 31 -4 9 -2 22 2 28 17 21 22 152 7 172 -17 22 -19 60 -5 69 6 4 2 17 -9
33 -11 15 -21 45 -23 67 -3 34 1 41 23 52 41 20 62 50 65 93 1 21 5 44 9 49 3
6 0 19 -6 29 -16 25 -4 55 18 50 15 -3 18 -14 19 -59z"></path>
<path d="M4305 2070 c-7 -12 2 -30 16 -30 5 0 9 9 9 20 0 21 -15 27 -25 10z"></path>
<path d="M4815 2044 c-16 -8 -46 -31 -66 -51 -37 -35 -77 -108 -66 -119 3 -4
31 21 62 54 31 34 76 73 101 89 24 15 44 31 44 36 0 12 -44 8 -75 -9z"></path>
<path d="M4270 2023 c0 -25 -49 -83 -71 -83 -22 0 -25 -13 -6 -28 16 -14 112
91 103 113 -7 20 -26 19 -26 -2z"></path>
<path d="M4075 1990 c-15 -22 -24 -44 -20 -48 4 -4 10 -1 12 6 3 7 16 26 29
42 14 16 20 31 15 34 -4 3 -21 -12 -36 -34z"></path>
<path d="M4262 1930 c-53 -59 -53 -59 -37 -90 8 -16 18 -30 20 -30 2 0 19 24
38 53 49 76 64 128 38 127 -3 0 -30 -27 -59 -60z"></path>
<path d="M2105 1951 c3 -5 18 -12 35 -16 25 -6 93 -46 168 -101 21 -16 22 -16
16 2 -12 34 -58 76 -109 100 -49 23 -122 33 -110 15z"></path>
<path d="M4837 1900 c-73 -58 -17 -180 83 -180 65 0 100 75 68 145 -24 53
-104 71 -151 35z m64 -56 c17 -21 0 -49 -31 -49 -27 0 -46 25 -37 49 8 21 51
21 68 0z"></path>
<path d="M2070 1901 c0 -8 -6 -11 -16 -7 -13 5 -15 2 -11 -16 4 -15 -3 -31
-23 -55 -41 -46 -41 -94 -1 -134 42 -42 92 -40 137 5 27 27 34 42 34 74 0 45
-31 92 -60 92 -10 0 -28 12 -39 28 -11 15 -21 21 -21 13z m60 -81 c8 -14 8
-26 0 -40 -19 -35 -80 -20 -80 20 0 40 61 55 80 20z m-20 -86 c36 7 39 -8 5
-30 -30 -20 -70 -12 -85 16 -16 30 -3 42 26 24 16 -11 35 -14 54 -10z"></path>
<path d="M4020 1894 c0 -8 5 -12 10 -9 6 3 10 10 10 16 0 5 -4 9 -10 9 -5 0
-10 -7 -10 -16z"></path>
<path d="M4150 1886 c0 -15 -10 -32 -26 -43 -23 -17 -24 -21 -11 -32 13 -10
20 -6 42 27 15 23 23 46 19 55 -9 25 -24 20 -24 -7z"></path>
<path d="M4162 1810 c-27 -37 -27 -50 0 -96 l22 -37 28 34 c15 18 28 40 28 47
0 18 -39 82 -49 82 -4 0 -17 -13 -29 -30z m46 -54 c-4 -25 -27 -28 -41 -4 -8
12 -7 21 2 32 18 21 43 2 39 -28z"></path>
<path d="M4073 1763 c-3 -10 -15 -25 -26 -34 -18 -15 -17 -39 2 -39 7 0 51 72
51 84 0 14 -21 5 -27 -11z"></path>
<path d="M4081 1693 l-24 -37 23 -43 c13 -24 28 -43 34 -43 6 0 21 18 34 40
l23 40 -23 40 c-13 22 -27 40 -33 40 -5 0 -21 -17 -34 -37z m59 -42 c0 -26
-21 -43 -37 -30 -16 14 -17 41 -1 57 14 14 38 -2 38 -27z"></path>
<path d="M4405 1701 c-65 -40 -115 -117 -115 -176 0 -37 12 -31 40 22 14 26
51 76 84 110 43 47 54 63 40 63 -11 0 -32 -8 -49 -19z"></path>
<path d="M1510 1702 c-14 -2 -124 -16 -245 -31 l-220 -26 1 -60 c1 -33 8 -139
17 -235 9 -96 18 -206 19 -244 l3 -70 -95 -54 c-503 -287 -990 -601 -990 -639
0 -22 13 -16 111 54 201 142 527 345 836 522 121 68 164 98 169 115 3 13 -2
115 -12 227 -10 112 -18 238 -18 279 l-1 74 135 14 c74 7 176 19 225 26 50 8
94 10 98 6 11 -10 58 -423 49 -431 -4 -3 -28 -13 -53 -23 -86 -31 -156 -110
-147 -167 6 -42 48 -61 150 -68 51 -4 105 -13 119 -21 44 -25 99 -78 110 -106
5 -15 11 -90 12 -168 l3 -141 -33 -43 c-17 -23 -40 -68 -49 -100 -22 -72 -27
-78 -79 -101 -55 -24 -121 -85 -145 -132 -24 -47 -42 -123 -34 -144 8 -19 55
-17 62 3 2 7 -2 10 -12 6 -20 -8 -20 8 -1 74 19 64 63 116 124 146 76 38 83
39 122 6 36 -29 36 -30 27 -81 -5 -28 -7 -53 -4 -56 2 -3 21 26 40 65 l35 70
-24 16 c-13 9 -28 16 -33 16 -5 0 -15 7 -22 15 -7 9 -19 14 -27 11 -16 -7 -16
-1 2 60 20 67 71 144 96 144 13 0 24 10 30 29 6 17 35 51 65 76 40 35 58 59
71 97 12 32 30 60 51 75 39 31 42 53 7 53 -20 0 -29 8 -43 40 -12 27 -57 75
-147 156 -138 124 -164 148 -207 185 -26 23 -28 30 -49 234 -11 116 -25 220
-30 233 -8 22 -19 24 -69 14z m170 -533 c37 -22 140 -121 140 -134 0 -4 -8
-14 -17 -21 -10 -7 -13 -14 -6 -14 6 0 15 5 18 10 11 18 38 11 67 -17 15 -15
28 -34 28 -43 0 -9 12 -27 26 -41 14 -13 37 -46 51 -72 22 -44 23 -51 9 -65
-8 -10 -18 -30 -22 -46 -7 -30 -123 -156 -143 -156 -24 0 -32 50 -21 133 18
143 15 162 -25 187 -19 12 -51 41 -70 65 l-36 43 -118 3 c-156 5 -180 24 -125
97 65 85 170 115 244 71z"></path>
<path d="M1597 1095 c-4 -8 -2 -17 3 -20 6 -4 10 -4 10 -1 0 2 3 11 6 20 3 9
2 16 -4 16 -5 0 -12 -7 -15 -15z"></path>
<path d="M1650 1100 c0 -5 9 -10 19 -10 11 0 23 -4 26 -10 7 -12 25 -13 25 -2
0 7 -47 32 -62 32 -4 0 -8 -4 -8 -10z"></path>
<path d="M1890 893 c0 -16 25 -73 32 -73 12 0 10 18 -7 50 -15 29 -25 38 -25
23z"></path>
<path d="M1906 764 c-4 -10 -1 -14 6 -12 15 5 23 28 10 28 -5 0 -13 -7 -16
-16z"></path>
<path d="M5874 1693 c19 -69 14 -348 -10 -483 l-6 -35 124 -83 c194 -131 246
-168 352 -250 228 -176 424 -337 584 -480 45 -41 82 -68 82 -60 0 22 -225 220
-465 409 -172 136 -198 155 -217 162 -11 4 -18 17 -18 31 0 37 -32 176 -40
176 -5 0 -11 11 -14 25 -4 14 -14 25 -22 25 -11 0 -14 -5 -10 -16 3 -9 6 -20
6 -25 0 -5 7 -9 15 -9 11 0 13 -8 8 -31 -3 -17 0 -40 7 -55 10 -18 11 -27 2
-36 -9 -9 -13 -7 -18 5 -3 9 -14 17 -24 17 -11 0 -22 5 -25 10 -4 6 -10 8 -15
5 -5 -3 -21 10 -36 30 -14 19 -32 35 -39 35 -7 0 -15 9 -18 20 -3 12 -14 20
-27 20 -11 0 -32 12 -45 26 -13 14 -28 23 -33 20 -6 -3 -24 7 -41 23 -30 28
-31 31 -24 90 3 34 10 64 14 67 5 3 9 16 9 30 0 17 -4 23 -12 18 -8 -5 -9 5
-3 37 8 46 9 74 4 99 -2 9 2 14 10 12 9 -2 11 3 6 15 -15 36 -17 63 -5 63 6 0
14 -9 17 -19 3 -11 13 -21 24 -24 12 -3 17 -11 13 -21 -4 -9 0 -18 10 -22 17
-7 56 -68 56 -89 0 -9 6 -12 15 -9 11 5 15 -1 15 -19 0 -14 4 -29 10 -32 5 -3
18 -26 29 -50 19 -44 51 -62 51 -29 0 20 -54 117 -75 134 -8 7 -15 18 -15 24
0 11 -71 112 -152 214 -41 53 -63 67 -54 35z"></path>
<path d="M4220 1679 c-7 -11 -9 -24 -5 -27 7 -7 35 25 35 40 0 16 -19 8 -30
-13z"></path>
<path d="M4684 1676 c-10 -8 -16 -18 -12 -21 4 -4 15 0 24 9 21 22 13 30 -12
12z"></path>
<path d="M4000 1636 c-6 -19 -18 -40 -26 -46 -16 -14 -19 -40 -4 -40 10 0 60
91 60 110 0 23 -19 8 -30 -24z"></path>
<path d="M3214 1635 c-18 -14 -17 -15 17 -9 32 5 42 1 77 -30 22 -20 45 -36
52 -36 21 0 -84 89 -106 90 -11 0 -29 -7 -40 -15z"></path>
<path d="M3705 1605 c-58 -53 -46 -61 15 -10 45 37 60 41 91 24 11 -6 25 -8
32 -6 13 5 -54 37 -75 37 -7 -1 -35 -21 -63 -45z"></path>
<path d="M3453 1599 c-24 -17 -43 -32 -43 -34 0 -7 34 8 63 28 29 20 68 17 97
-7 8 -7 24 -16 34 -20 16 -5 17 -4 6 9 -7 8 -17 15 -22 15 -5 0 -21 9 -35 20
-34 27 -50 25 -100 -11z"></path>
<path d="M4995 1619 c-9 -13 0 -22 25 -24 23 -2 25 6 8 23 -15 15 -25 15 -33
1z"></path>
<path d="M4177 1613 c-4 -3 -7 -11 -7 -17 0 -6 5 -5 12 2 6 6 9 14 7 17 -3 3
-9 2 -12 -2z"></path>
<path d="M4012 1565 c-12 -25 -22 -53 -22 -62 0 -18 38 -83 49 -83 4 0 19 24
33 54 l27 55 -22 40 c-12 23 -27 41 -33 41 -5 0 -20 -20 -32 -45z m53 -24 c7
-23 -13 -71 -30 -71 -17 0 -25 37 -15 66 11 29 36 32 45 5z"></path>
<path d="M2294 1569 c-17 -20 -17 -22 -2 -16 52 19 13 -55 -55 -104 -48 -35
-93 -38 -131 -8 -33 26 -33 53 0 86 25 25 39 26 89 8 17 -6 17 -4 -4 14 -13
12 -32 21 -43 21 -24 0 -88 -61 -88 -85 0 -44 52 -85 108 -85 56 0 196 135
175 168 -15 24 -28 24 -49 1z"></path>
<path d="M2550 1584 c0 -3 20 -31 44 -62 24 -32 53 -76 65 -99 43 -86 51 -35
9 55 -23 48 -118 134 -118 106z"></path>
<path d="M4994 1566 c-6 -7 -15 -23 -19 -37 -13 -45 -67 -119 -118 -164 -58
-50 -55 -68 11 -71 20 -1 54 -5 75 -9 l37 -8 0 45 c0 29 6 50 16 59 23 19 44
64 44 95 0 15 7 36 17 46 15 17 15 19 -2 38 -21 23 -45 25 -61 6z m30 -24 c15
-48 -51 -178 -102 -202 -15 -7 -35 -16 -44 -21 -26 -13 -23 13 2 29 36 22 110
132 116 173 7 42 19 50 28 21z"></path>
<path d="M3215 1560 c-4 -6 6 -10 23 -10 16 0 37 -9 47 -20 10 -11 23 -20 29
-20 6 0 -5 14 -24 30 -36 30 -64 38 -75 20z"></path>
<path d="M3723 1525 c-26 -24 -43 -44 -37 -45 5 0 25 16 44 35 20 21 44 35 58
35 13 0 20 4 17 10 -12 19 -33 10 -82 -35z"></path>
<path d="M3500 1540 c0 -5 9 -10 21 -10 11 0 17 5 14 10 -3 6 -13 10 -21 10
-8 0 -14 -4 -14 -10z"></path>
<path d="M4415 1525 c-61 -60 -1 -175 90 -175 41 0 85 50 85 95 0 55 -53 105
-109 105 -31 0 -48 -6 -66 -25z m69 -47 c14 -23 -3 -52 -32 -56 -32 -5 -49 34
-26 59 21 23 42 21 58 -3z"></path>
<path d="M5100 1542 c0 -5 7 -29 16 -53 13 -37 13 -51 3 -89 -14 -47 -86 -130
-114 -130 -8 0 -15 -4 -15 -10 0 -30 82 12 114 58 48 71 57 123 31 185 -14 35
-35 58 -35 39z"></path>
<path d="M3103 1508 c-5 -7 -15 -35 -21 -63 -19 -76 -74 -184 -125 -247 -51
-62 -54 -68 -32 -68 27 0 84 -60 91 -96 8 -45 -21 -101 -72 -136 -51 -36 -152
-62 -207 -53 -52 9 -116 33 -139 53 -15 12 -20 12 -46 -6 -15 -12 -47 -27 -70
-34 -23 -7 -42 -16 -42 -20 0 -13 24 -9 63 11 59 30 75 31 140 4 105 -44 209
-34 309 29 96 60 111 156 35 229 l-40 39 40 58 c53 75 87 144 108 217 10 33
24 68 33 78 14 15 14 17 0 17 -9 0 -20 -6 -25 -12z"></path>
<path d="M4150 1505 c-17 -21 -15 -52 6 -107 15 -39 17 -54 7 -88 -7 -30 -8
-39 0 -31 16 16 69 14 112 -5 20 -8 39 -13 42 -11 2 3 -11 25 -29 49 -18 24
-51 81 -73 126 -21 45 -42 82 -46 82 -4 0 -12 -7 -19 -15z"></path>
<path d="M3940 1500 c0 -5 5 -10 10 -10 6 0 10 5 10 10 0 6 -4 10 -10 10 -5 0
-10 -4 -10 -10z"></path>
<path d="M4081 1439 c-27 -65 -26 -67 9 -109 24 -29 31 -33 42 -22 11 11 8 17
-14 34 -32 23 -35 51 -13 105 18 41 18 43 6 43 -4 0 -18 -23 -30 -51z"></path>
<path d="M2449 1443 c-80 -49 -76 -156 6 -183 42 -14 95 6 121 45 13 20 24 26
41 22 19 -3 23 -1 18 11 -3 8 0 19 7 23 9 6 7 10 -7 15 -11 4 -36 25 -56 46
-41 43 -84 50 -130 21z m72 -13 c39 -21 13 -75 -33 -68 -30 4 -38 46 -12 65
21 16 20 16 45 3z m77 -68 c2 -7 -7 -16 -20 -21 -13 -5 -32 -18 -42 -30 -28
-31 -81 -28 -102 4 -20 30 -11 44 16 27 33 -20 79 -15 103 13 23 25 38 28 45
7z"></path>
<path d="M3964 1445 c-7 -17 26 -115 38 -115 4 0 12 9 18 20 9 16 6 29 -16 65
-29 49 -32 52 -40 30z"></path>
<path d="M1950 1388 c-11 -18 -19 -41 -16 -51 2 -9 -3 -24 -11 -33 -21 -20
-12 -97 14 -133 11 -14 41 -39 67 -55 94 -58 194 -33 266 66 45 61 41 78 -18
78 -64 0 -150 43 -220 110 -29 27 -55 50 -57 50 -3 0 -14 -15 -25 -32z m87
-59 c45 -41 133 -89 166 -89 9 0 17 -4 17 -9 0 -18 -35 -21 -84 -6 -88 25
-133 62 -151 123 -9 31 2 28 52 -19z m31 -105 c21 -15 49 -24 72 -24 26 0 43
-7 60 -25 l23 -25 -44 -20 c-24 -11 -57 -20 -72 -20 -36 0 -95 25 -125 53 -27
25 -55 74 -48 85 9 15 99 -1 134 -24z m178 -42 c-17 -16 -18 -16 -5 5 7 12 15
20 18 17 3 -2 -3 -12 -13 -22z"></path>
<path d="M4037 1323 c-22 -21 15 -143 44 -143 4 0 13 18 20 39 11 36 10 42
-16 75 -28 36 -36 42 -48 29z m43 -69 c0 -8 -4 -14 -9 -14 -11 0 -22 26 -14
34 9 9 23 -3 23 -20z"></path>
<path d="M1660 1300 c0 -8 9 -26 20 -40 l21 -25 -13 30 c-15 38 -28 54 -28 35z"></path>
<path d="M5260 1250 c0 -5 5 -10 10 -10 6 0 10 5 10 10 0 6 -4 10 -10 10 -5 0
-10 -4 -10 -10z"></path>
<path d="M6170 1249 c0 -18 40 -79 52 -79 5 0 8 3 6 8 -2 4 -10 24 -18 45 -13
34 -40 52 -40 26z"></path>
<path d="M4111 1177 c-12 -41 -11 -46 16 -90 15 -25 32 -45 36 -44 5 1 17 27
28 57 l19 54 -32 33 c-18 18 -37 33 -44 33 -6 0 -17 -19 -23 -43z m64 -56 c-3
-11 -13 -21 -20 -21 -17 0 -30 43 -21 67 6 15 9 15 27 -4 15 -14 19 -27 14
-42z"></path>
<path d="M4205 1065 l-18 -65 28 -40 c32 -47 41 -49 49 -15 12 47 25 25 23
-37 l-2 -63 130 2 c141 3 256 14 408 40 79 13 100 20 109 37 6 12 35 49 65 83
42 48 51 64 40 69 -9 3 -25 0 -37 -6 -113 -60 -291 -62 -438 -3 l-63 25 -43
-40 c-52 -48 -137 -73 -175 -52 -19 10 -22 18 -18 48 5 44 -7 82 -27 82 -9 0
-20 -24 -31 -65z m412 -51 c25 -16 28 -16 183 -18 93 -1 115 -4 117 -16 4 -23
-44 -52 -92 -55 -24 -2 -48 -5 -53 -9 -5 -3 -43 -9 -83 -12 -41 -4 -80 -11
-87 -17 -10 -8 -16 -7 -22 2 -6 11 -15 11 -44 1 -21 -6 -48 -9 -62 -6 -13 4
-24 2 -24 -4 0 -5 -13 -10 -30 -10 -16 0 -30 4 -30 9 0 5 -17 7 -39 4 -43 -6
-51 1 -44 37 5 28 42 50 85 50 19 0 35 10 55 36 28 35 28 35 88 29 33 -3 70
-13 82 -21z m-372 -24 c3 -5 1 -10 -4 -10 -6 0 -11 5 -11 10 0 6 2 10 4 10 3
0 8 -4 11 -10z"></path>
<path d="M3665 1060 c17 -17 61 -47 100 -66 38 -19 88 -53 111 -75 37 -36 48
-41 125 -53 123 -20 269 -29 269 -18 0 5 -35 13 -77 16 -137 12 -247 28 -268
39 -11 6 -40 27 -65 48 -25 20 -68 48 -96 62 -28 14 -65 37 -82 51 -41 36 -52
33 -17 -4z"></path>
<path d="M3590 1014 c-16 -19 -5 -30 38 -39 39 -8 40 3 3 32 -26 20 -30 21
-41 7z"></path>
<path d="M3530 1000 c0 -5 7 -10 15 -10 8 0 15 5 15 10 0 6 -7 10 -15 10 -8 0
-15 -4 -15 -10z"></path>
<path d="M3265 971 c-11 -11 -58 -40 -105 -66 -47 -25 -99 -60 -117 -77 -41
-40 -110 -54 -330 -70 -95 -6 -173 -15 -173 -20 0 -11 47 -10 215 3 203 15
273 32 306 73 15 18 68 54 118 80 50 27 97 59 106 72 19 29 7 31 -20 5z"></path>
<path d="M3338 964 c3 -19 -4 -34 -29 -61 l-34 -35 45 7 c25 4 58 14 75 22 22
12 49 14 107 10 43 -3 78 -2 78 3 0 4 -35 13 -77 19 -42 6 -79 13 -81 16 -3 2
-12 -5 -22 -17 -22 -28 -49 -18 -43 14 3 14 -2 29 -10 36 -12 10 -13 8 -9 -14z"></path>
<path d="M3610 900 c0 -5 7 -10 15 -10 8 0 15 5 15 10 0 6 -7 10 -15 10 -8 0
-15 -4 -15 -10z"></path>
<path d="M2060 885 c14 -16 40 -20 40 -6 0 9 -24 21 -42 21 -6 0 -6 -6 2 -15z"></path>
<path d="M3443 827 c-35 -5 -63 -14 -63 -18 0 -11 148 -11 204 -1 21 4 38 11
38 17 -2 13 -102 14 -179 2z"></path>
<path d="M2310 809 c0 -5 -27 -38 -59 -72 -128 -134 -161 -175 -161 -196 0
-14 -24 -47 -62 -87 -82 -84 -120 -131 -111 -137 4 -2 132 -8 283 -12 151 -4
280 -7 285 -8 6 -1 10 85 10 243 l0 245 -75 8 c-41 5 -79 12 -84 18 -13 12
-26 12 -26 -2z m142 -58 c9 -9 13 -394 4 -410 -6 -10 -52 -11 -210 -6 -218 7
-246 10 -246 26 0 6 27 40 60 76 33 35 60 70 60 77 0 17 86 125 158 199 l57
58 55 -7 c30 -3 58 -9 62 -13z"></path>
<path d="M3628 755 c-15 -15 -169 -34 -234 -28 -84 7 -105 -10 -27 -22 27 -4
69 -15 96 -25 l47 -18 57 34 c31 19 63 34 70 34 7 0 13 4 13 9 0 12 -15 22
-22 16z m-98 -55 c0 -5 -7 -10 -15 -10 -8 0 -15 5 -15 10 0 6 7 10 15 10 8 0
15 -4 15 -10z"></path>
<path d="M3853 703 c-19 -7 -16 -23 3 -23 9 0 76 -29 148 -65 208 -102 402
-156 620 -171 l95 -7 95 -68 c53 -38 102 -69 111 -69 8 0 15 -4 15 -10 0 -5
19 -19 43 -31 l42 -21 -29 31 c-17 17 -33 31 -37 31 -15 0 -140 128 -130 134
6 4 21 0 35 -9 16 -11 26 -13 31 -6 3 6 28 11 55 11 27 0 51 4 54 9 3 5 25 8
49 7 35 -2 43 -6 45 -24 2 -12 12 -27 23 -32 10 -6 19 -17 19 -24 0 -7 9 -25
21 -40 13 -16 18 -33 14 -46 -5 -14 -2 -20 9 -20 9 0 16 -8 16 -17 0 -9 7 -24
16 -34 27 -30 7 -42 -32 -19 -20 11 -44 20 -55 20 -39 0 -12 -25 57 -54 38
-16 79 -34 92 -39 13 -6 35 -35 49 -64 15 -29 32 -53 40 -53 13 0 -31 91 -62
130 -7 8 -54 93 -105 188 l-93 174 -31 -6 c-176 -31 -455 -32 -616 -2 -180 33
-359 96 -512 183 -43 23 -79 43 -80 42 -2 0 -9 -3 -15 -6z"></path>
<path d="M3665 680 c-4 -6 7 -10 24 -10 17 0 31 5 31 10 0 6 -11 10 -24 10
-14 0 -28 -4 -31 -10z"></path>
<path d="M3800 680 c0 -5 5 -10 10 -10 6 0 10 5 10 10 0 6 -4 10 -10 10 -5 0
-10 -4 -10 -10z"></path>
<path d="M3750 670 c0 -5 5 -10 10 -10 6 0 10 5 10 10 0 6 -4 10 -10 10 -5 0
-10 -4 -10 -10z"></path>
<path d="M3586 648 c-21 -10 -35 -22 -32 -25 6 -6 96 34 96 43 0 8 -26 1 -64
-18z"></path>
<path d="M3300 641 c0 -6 4 -11 8 -11 5 0 37 -18 71 -40 42 -28 59 -34 52 -21
-12 22 -5 31 26 31 46 0 21 17 -44 29 -38 7 -78 15 -90 18 -13 3 -23 0 -23 -6z"></path>
<path d="M3510 610 c0 -5 5 -10 10 -10 6 0 10 5 10 10 0 6 -4 10 -10 10 -5 0
-10 -4 -10 -10z"></path>
<path d="M2945 545 c-113 -61 -337 -145 -384 -145 -11 0 -21 -5 -21 -11 0 -33
216 37 398 128 128 63 135 65 171 54 21 -6 68 -11 104 -11 52 0 78 -6 132 -31
49 -23 69 -29 78 -20 8 8 7 11 -3 11 -7 0 -43 14 -79 32 -56 27 -75 32 -133
30 -42 -2 -80 3 -104 13 -20 8 -37 15 -38 14 0 0 -55 -29 -121 -64z"></path>
<path d="M5050 247 c0 -16 38 -39 52 -31 7 4 2 14 -13 25 -28 22 -39 24 -39 6z"></path>
<path d="M1705 20 c-15 -17 -16 -20 -3 -20 9 0 18 9 21 20 3 11 4 20 3 20 -2
0 -11 -9 -21 -20z"></path>
</g>
</svg>